<?xml version="1.0" standalone="no"?>
<!DOCTYPE svg PUBLIC "-//W3C//DTD SVG 20010904//EN"
 "http://www.w3.org/TR/2001/REC-SVG-20010904/DTD/svg10.dtd">
<svg version="1.0" xmlns="http://www.w3.org/2000/svg"
 width="96.000000pt" height="96.000000pt" viewBox="0 0 96.000000 96.000000"
 preserveAspectRatio="xMidYMid meet">
<metadata>
Created by potrace 1.14, written by Peter Selinger 2001-2017
</metadata>
<g transform="translate(0.000000,96.000000) scale(0.100000,-0.100000)"
fill="#000000" stroke="none">
<path d="M361 944 c-224 -60 -379 -279 -357 -502 12 -118 76 -245 160 -318 58
-51 168 -101 252 -115 135 -22 285 26 393 127 124 115 178 296 136 457 -67
259 -333 419 -584 351z m152 -46 l-15 -33 -119 0 c-103 1 -122 -2 -136 -17 -9
-10 -21 -18 -27 -18 -6 0 -30 -21 -54 -47 -30 -34 -42 -55 -39 -70 3 -14 -4
-29 -17 -40 l-21 -18 19 23 c22 25 11 30 -15 6 -16 -15 -17 -14 -12 6 8 29
108 136 155 166 59 37 176 73 239 74 l57 0 -15 -32z m138 -2 c76 -31 124 -65
110 -79 -6 -6 -11 -23 -11 -38 l0 -28 -57 35 c-32 19 -76 40 -98 46 -22 6 -41
13 -43 14 -2 1 0 18 3 38 9 43 19 44 96 12z m-218 -72 c20 -4 37 -11 37 -15 0
-25 -173 -280 -189 -278 -3 0 -16 13 -28 29 -22 27 -22 28 -3 23 17 -5 20 0
20 33 0 40 5 51 53 122 33 51 34 60 2 68 -71 18 18 32 108 18z m428 -96 c17
-26 39 -70 50 -98 l19 -51 -25 17 c-14 9 -25 19 -25 23 0 4 -21 30 -47 57 -43
44 -48 54 -48 96 l0 47 23 -22 c12 -11 36 -42 53 -69z m-290 57 c60 -21 149
-76 149 -92 0 -25 -62 -138 -137 -250 -41 -62 -77 -113 -80 -113 -12 0 -101
71 -142 113 l-43 45 66 92 c37 51 83 122 102 156 20 35 37 64 39 64 1 0 22 -7
46 -15z m-398 -35 c-9 -16 -21 -30 -26 -30 -9 0 -1 15 22 42 23 27 24 22 4
-12z m10 -58 c-3 -12 -9 -19 -14 -16 -5 3 -3 14 3 24 15 24 19 21 11 -8z m689
-140 l20 -33 -56 -113 c-31 -62 -65 -121 -75 -130 -18 -17 -20 -16 -26 3 -3
12 -13 21 -21 21 -8 0 -14 4 -14 9 0 5 -21 17 -46 27 l-47 18 -27 -34 c-47
-58 -41 -17 9 50 62 86 115 175 147 245 l25 58 45 -44 c25 -24 54 -59 66 -77z
m-661 76 c8 -15 8 -18 0 -14 -6 4 -16 16 -22 28 -8 15 -8 18 0 14 6 -4 16 -16
22 -28z m-71 12 c0 -5 -5 -10 -11 -10 -5 0 -7 5 -4 10 3 6 8 10 11 10 2 0 4
-4 4 -10z m800 -160 c0 -105 -46 -237 -100 -285 l-23 -20 14 22 c12 20 11 24
-6 37 -18 13 -22 13 -38 -2 -10 -9 7 26 38 78 30 52 61 112 67 134 l12 39 13
-34 c12 -32 13 -28 9 46 -3 50 -1 74 4 65 6 -8 10 -44 10 -80z m-590 -127 c66
-68 69 -72 23 -34 -29 24 -62 56 -74 72 -11 16 -25 26 -31 23 -7 -4 -8 -2 -4
4 4 7 8 12 9 12 2 0 36 -35 77 -77z"/>
<path d="M630 370 c0 -5 5 -10 10 -10 6 0 10 5 10 10 0 6 -4 10 -10 10 -5 0
-10 -4 -10 -10z"/>
</g>
</svg>
